<svg xmlns="http://www.w3.org/2000/svg" viewBox="0 0 300 300" width="300" height="300">
    <defs>
        <!-- 霓虹渐变 -->
        <linearGradient id="grad1" x1="0%" y1="0%" x2="100%" y2="100%">
            <stop offset="0%" stop-color="#00ffd1"/>
            <stop offset="100%" stop-color="#0ea5e9"/>
        </linearGradient>
        <!-- 发光滤镜 -->
        <filter id="glow" x="-50%" y="-50%" width="200%" height="200%">
            <feGaussianBlur in="SourceGraphic" stdDeviation="2" result="blur"/>
            <feMerge>
                <feMergeNode in="blur"/>
                <feMergeNode in="SourceGraphic"/>
            </feMerge>
        </filter>
    </defs>

    <!-- 背景 -->
    <rect width="100%" height="100%" fill="#0b1120" rx="24"/>

    <!-- 球体外圈 -->
    <circle cx="150" cy="150" r="110" stroke="url(#grad1)" stroke-width="3" fill="none" filter="url(#glow)"/>
    <circle cx="150" cy="150" r="80" stroke="url(#grad1)" stroke-width="1.5" fill="none" opacity="0.6"/>

    <!-- 经线/纬线 -->
    <ellipse cx="150" cy="150" rx="100" ry="40" stroke="#0ea5e9" stroke-width="1" fill="none" opacity="0.4"/>
    <ellipse cx="150" cy="150" rx="100" ry="40" stroke="#00ffd1" stroke-width="1" fill="none" opacity="0.3" transform="rotate(60,150,150)"/>
    <ellipse cx="150" cy="150" rx="100" ry="40" stroke="#00ffd1" stroke-width="1" fill="none" opacity="0.3" transform="rotate(-60,150,150)"/>

    <!-- 连线 -->
    <path d="M90 120 L210 180" stroke="url(#grad1)" stroke-width="1.5" opacity="0.8"/>
    <path d="M120 90 L190 210" stroke="url(#grad1)" stroke-width="1.2" opacity="0.8"/>
    <path d="M80 180 L220 130" stroke="url(#grad1)" stroke-width="1.2" opacity="0.8"/>

    <!-- 节点 -->
    <circle cx="90" cy="120" r="6" fill="#00ffd1" filter="url(#glow)"/>
    <circle cx="210" cy="180" r="6" fill="#0ea5e9" filter="url(#glow)"/>
    <circle cx="120" cy="90" r="5" fill="#00ffd1" filter="url(#glow)"/>
    <circle cx="190" cy="210" r="5" fill="#0ea5e9" filter="url(#glow)"/>
    <circle cx="80" cy="180" r="5" fill="#00ffd1" filter="url(#glow)"/>
    <circle cx="220" cy="130" r="5" fill="#0ea5e9" filter="url(#glow)"/>
    <circle cx="150" cy="150" r="8" fill="#ffffff" filter="url(#glow)"/>
</svg>
